<?xml version="1.0" encoding="utf-8"?>
<!-- Generator: Adobe Illustrator 24.2.3, SVG Export Plug-In . SVG Version: 6.00 Build 0)  -->
<svg version="1.1" id="Layer_1" xmlns="http://www.w3.org/2000/svg" xmlns:xlink="http://www.w3.org/1999/xlink" x="0px" y="0px"
	 viewBox="0 0 426.8 243.4" style="enable-background:new 0 0 426.8 243.4;" xml:space="preserve">
<style type="text/css">
	.st0{fill:#002BFF;}
	.st1{enable-background:new    ;}
	.st2{fill:#00FFEC;}
</style>
<g>
	<path class="st0" d="M72.2,123.6l7.2,54.7H57l-4.3-32.7H29.9l-4.4,32.7H3.1l7.2-54.4l15.7-99.7h30.5L72.2,123.6z M49.7,123.6
		l-8.5-64.1l-8.5,64.1H49.7z"/>
	<path class="st0" d="M92.8,24.2H115v66.1h19.4V24.2h22.2v154.1h-22.2v-66.1H115v66.1H92.8V24.2z"/>
	<path class="st0" d="M239.4,148.4c0,21.6-10.7,32.4-32,32.4c-21.3,0-31.9-10.8-31.9-32.4V54.1c0-21.6,10.6-32.4,31.9-32.4
		c21.3,0,32,10.8,32,32.4V148.4z M217.1,54.1c0-6.9-3.2-10.4-9.7-10.5h-0.2c-6.4,0-9.6,3.5-9.6,10.5v94.3c0,7,3.2,10.4,9.7,10.4
		c6.5,0,9.7-3.5,9.7-10.4V54.1z"/>
	<path class="st0" d="M258.2,24.2h32.4c19.7,0,29.6,10.9,29.6,32.4v23.2c0,13.6-5.8,22.5-17.5,26.8l25,71.7h-24.4l-20-67.8l-2.8,0.4
		v67.4h-22.2V24.2z M280.4,46.1v44.2h5.1c3.1,0,5.2-0.2,6.4-0.6c4-1.6,6-4.9,6-9.8V56.6c0-7-3.2-10.5-9.7-10.5L280.4,46.1
		L280.4,46.1z"/>
</g>
<g>
	<g class="st1">
		<path class="st2" d="M339.2,80.3L332,25.6h22.5l4.3,32.7h22.7l4.4-32.7h22.4L401,80l-15.7,99.7h-30.5L339.2,80.3z M361.7,80.3
			l8.5,64.1l8.5-64.1H361.7z"/>
	</g>
</g>
<circle class="st2" cx="371.3" cy="208.6" r="19.5"/>
</svg>
