<?xml version="1.0" encoding="utf-8"?>
<!-- Generator: Adobe Illustrator 22.1.0, SVG Export Plug-In . SVG Version: 6.00 Build 0)  -->
<svg version="1.1" id="Layer_1" xmlns="http://www.w3.org/2000/svg" xmlns:xlink="http://www.w3.org/1999/xlink" x="0px" y="0px"
	 viewBox="0 0 26 26" style="enable-background:new 0 0 26 26;" xml:space="preserve">
<style type="text/css">
	.st0{clip-path:url(#SVGID_2_);}
	.st1{fill:#27C7BE;}
	.st2{clip-path:url(#SVGID_6_);}
	.st3{clip-path:url(#SVGID_10_);}
	.st4{fill:#00A89C;}
	.st5{fill:#34BCAF;}
	.st6{fill:#62BC5E;}
	.st7{fill:#39B44A;}
	.st8{clip-path:url(#SVGID_14_);}
	.st9{clip-path:url(#SVGID_18_);}
	.st10{clip-path:url(#SVGID_22_);}
	.st11{clip-path:url(#SVGID_26_);}
	.st12{clip-path:url(#SVGID_30_);}
	.st13{clip-path:url(#SVGID_34_);}
	.st14{fill:none;stroke:#27C7BE;stroke-linecap:round;stroke-linejoin:round;stroke-miterlimit:10;}
	.st15{fill:#27C7BE;stroke:#27C7BE;stroke-width:0.9579;stroke-linecap:round;stroke-linejoin:round;stroke-miterlimit:10;}
</style>
<g>
	<path class="st4" d="M14.3,7.4c0.1,0.4,0.4,1,0.8,1.4c1.3,1.3,3.4,1.3,4.7,0l-6.5-6.5C13.3,2.3,13.9,6.1,14.3,7.4z"/>
	<path class="st5" d="M18.4,3.2c-1.2-0.4-5.1-1-5.1-1l6.5,6.5v0c1.3-1.3,1.3-3.4,0-4.7C19.4,3.7,18.8,3.3,18.4,3.2z"/>
	<path class="st4" d="M4,0.1c0,0,0.4,2.6,0.6,3.4c0.1,0.3,0.3,0.7,0.6,0.9c0.9,0.9,2.3,0.9,3.2,0l0,0L4,0.1L4,0.1z"/>
	<path class="st5" d="M8.3,1.3C8.1,1.1,7.7,0.9,7.4,0.8C6.6,0.5,4,0.1,4,0.1l4.4,4.4C9.2,3.6,9.2,2.2,8.3,1.3z"/>
	<path class="st5" d="M0.8,12.8l5.8,5.8c1.2-1.2,1.2-3.1,0-4.2c-0.4-0.4-0.9-0.6-1.2-0.7C4.2,13.4,0.8,12.8,0.8,12.8z"/>
	<path class="st4" d="M0.8,12.8c0,0,0.5,3.5,0.9,4.6c0.1,0.3,0.4,0.9,0.7,1.2c1.2,1.2,3.1,1.2,4.2,0v0L0.8,12.8L0.8,12.8z"/>
	<path class="st4" d="M5.1,9.7c0,0.1,0.1,0.3,0.3,0.5c0.4,0.4,1.1,0.4,1.6,0L4.8,8C4.8,8,5,9.3,5.1,9.7z"/>
	<path class="st5" d="M4.8,8l2.1,2.1c0.4-0.4,0.4-1.1,0-1.6C6.8,8.5,6.6,8.4,6.5,8.4C6,8.2,4.8,8,4.8,8z"/>
	<path class="st4" d="M8.1,22.5c0,0.1,0.1,0.3,0.3,0.5c0.4,0.4,1.1,0.4,1.6,0l-2.1-2.1C7.8,20.9,8,22.1,8.1,22.5z"/>
	<path class="st5" d="M7.8,20.9L9.9,23c0.4-0.4,0.4-1.1,0-1.6c-0.1-0.1-0.3-0.2-0.5-0.3C9,21.1,7.8,20.9,7.8,20.9z"/>
	<g>
		<path class="st6" d="M19.7,13.1c-1.5-0.5-5.1-1.1-7.2-1.4l1,2.6c0,0,2.1,4,6.3,6.1c1.2,0.6,2.1,1.1,2.8,1.6
			c1.7-2.3,1.5-5.5-0.5-7.5C21.4,13.8,20.4,13.3,19.7,13.1z"/>
		<path class="st7" d="M10.8,11.4c0,0,1,6.7,1.7,8.9c0.2,0.7,0.7,1.7,1.4,2.4c2,2,5,2.2,7.2,0.7c1.2,0.8,0.9,2.2,0.9,2.2
			c0.5,0.1,1,0.3,1,0.3s0.4-1.8-1.3-3.3c-1.4-1.2-6.4-3.2-8.3-8.3l-1-2.6C11.5,11.5,10.8,11.4,10.8,11.4z"/>
	</g>
</g>
</svg>
